# xmcd
# 
# Track frame offsets:
#     150
#     18257
#     38935
#     62662
#     89495
#     111757
#     133637
#     154307
#     171720
#     194925
# 
# Disc length: 2879
# 
# Revision: 19
# Processed by: cddbd v1.5.2PL0 Copyright (c) Steve Scherf et al.
# Submitted via: fre:ac v1.0.27
# 
DISCID=930b3d0a
DTITLE=Lighthouse Family - Whatever Gets You Through The Day (2001) (Zo)
DYEAR=2001
DGENRE=Pop
TTITLE0=Run
TTITLE1=Happy
TTITLE2=(I Wish I Knew How It Would Feel To Be) Free/one
TTITLE3=End Of The Sky
TTITLE4=Life's A Dream
TTITLE5=It's A Beautiful Day
TTITLE6=You're A Star
TTITLE7=You Always Want What You Haven't Got
TTITLE8=Wish
TTITLE9=Whatever Gets You Through The Day
EXTD=YEAR: 2001
EXTT0=
EXTT1=
EXTT2=
EXTT3=
EXTT4=
EXTT5=
EXTT6=
EXTT7=
EXTT8=
EXTT9=
PLAYORDER=
